<svg enable-background="new 0 0 25 185" viewBox="0 0 25 185" xmlns="http://www.w3.org/2000/svg"><g fill="#e5e5e5"><path d="m12.5 88.9h-.3c-.4-.1-.6-.4-.5-.7.3-2 1-3.9 2.1-5.7 1.4-2 4.2-3.2 5.3-3.6.1-.1.3-.1.4 0 .3.1.5.5.4.8-.5 1.9-1.3 3.8-2.4 5.5-1.4 1.6-3.1 2.8-4.9 3.7zm6.3-8.9c-1.2.5-3.1 1.5-4.2 3-.9 1.4-1.5 3-1.9 4.6 1.5-.8 2.8-1.8 4-3.1 1-1.3 1.7-2.9 2.1-4.5zm.2-.7c0 .1 0 .1 0 0z"/><path d="m11.6 95.1h-.1c-1.8-.3-3.5-.9-5.1-1.9-1.5-1.3-2.6-3-3.3-4.8l-.1-.2v-.2c0-.2.2-.3.3-.4.2-.1.3-.1.5-.1 1.8.5 3.4 1.2 5 2.2 1.5 1.3 2.6 2.8 3.4 4.5.1.1.1.3.1.4 0 .2-.1.3-.3.4s-.3.1-.4.1zm-.4-.5s.1 0 0 0zm-7-5.9c.6 1.4 1.5 2.7 2.7 3.7 1.2.8 2.6 1.3 4 1.6-.7-1.3-1.6-2.5-2.8-3.5-1.1-.8-2.4-1.4-3.9-1.8z"/><path d="m13.4 100h-.3c-.2 0-.3-.1-.4-.3-.1-.1-.1-.3-.1-.5.3-2 1-3.9 2.1-5.7 1.4-2 4.2-3.2 5.3-3.6l.2-.1h.3c.2 0 .3.2.4.3s.1.3.1.5c-.5 1.9-1.3 3.8-2.4 5.5-1.4 1.6-3.1 2.8-4.9 3.7zm6.4-8.9c-1.1.5-3.1 1.5-4.2 3-.9 1.4-1.5 3-1.9 4.6 1.5-.8 2.8-1.8 4-3.1.9-1.3 1.6-2.9 2.1-4.5zm.2-.7c0 .1 0 .1 0 0z"/><path d="m11.9 105.2h-.1c-1.8-.3-3.6-.9-5.1-1.9-1.5-1.3-2.7-3-3.3-4.8 0-.1-.1-.3 0-.4.1-.3.5-.5.8-.4 1.7.5 3.4 1.2 5 2.2 1.5 1.3 2.6 2.8 3.4 4.5l.1.1v.3c-.2.2-.5.4-.8.4zm-7.3-6.4c.6 1.4 1.5 2.7 2.7 3.7 1.2.8 2.6 1.3 4 1.6-.7-1.3-1.6-2.5-2.8-3.5-1.2-.8-2.5-1.4-3.9-1.8z"/><path d="m12 74c-.3 0-.5-.2-.5-.5v-71c0-.3.2-.5.5-.5s.5.2.5.5v71c0 .3-.2.5-.5.5z"/><path d="m12 183c-.3 0-.5-.2-.5-.5v-71c0-.3.2-.5.5-.5s.5.2.5.5v71c0 .3-.2.5-.5.5z"/></g></svg>