<svg enable-background="new 0 0 300 25" viewBox="0 0 300 25" xmlns="http://www.w3.org/2000/svg"><g fill="#e5e5e5"><path d="m76.6 12.9h-74c-.3 0-.5-.2-.5-.5s.2-.5.5-.5h74c.3 0 .5.2.5.5s-.2.5-.5.5z"/><path d="m297.6 12.9h-74c-.3 0-.5-.2-.5-.5s.2-.5.5-.5h74c.3 0 .5.2.5.5s-.2.5-.5.5z"/><path d="m83.3 20.4c-.1 0-.2 0-.3-.1-.2-.1-.3-.2-.3-.4 0-.1 0-.3 0-.4.4-1.1 1.6-3.8 3.6-5.3 1.8-1.1 3.7-1.8 5.7-2.1.2 0 .3 0 .5.1.1.1.2.2.3.4v.2l-.1.2c-.9 1.9-2.1 3.5-3.7 4.9-1.8 1.1-3.6 2-5.6 2.5zm8.2-7.2c-1.6.3-3.2 1-4.6 1.9-1.4 1-2.5 3-3 4.1 1.6-.5 3.1-1.2 4.5-2.1 1.2-1.1 2.3-2.4 3.1-3.9z"/><path d="m98.2 12.6-.2-.1c-1.7-.8-3.2-1.9-4.4-3.3-1-1.6-1.8-3.3-2.2-5-.1-.3.1-.7.4-.8h.2l.3.1c1.8.6 3.4 1.8 4.7 3.2 1 1.6 1.7 3.3 2 5.2 0 .2 0 .3-.1.5-.1.1-.2.2-.4.3zm-5.7-8c.4 1.4 1.1 2.8 1.9 4 .9 1.1 2.1 2 3.4 2.7-.3-1.4-.9-2.8-1.7-4.1-.9-1-2.2-2-3.6-2.6z"/><path d="m94.4 21.3c-.3 0-.5-.2-.6-.5v-.2l.1-.3c.4-1.1 1.6-3.8 3.6-5.3 1.8-1.1 3.7-1.8 5.7-2.1.3-.1.7.2.7.5v.2l-.1.2c-.9 1.9-2.1 3.5-3.7 4.9-1.8 1.1-3.6 2-5.6 2.5 0 .1-.1.1-.1.1zm8.2-7.1c-1.6.3-3.2 1-4.6 1.9-1.4 1-2.5 3-3 4.1 1.6-.5 3.1-1.2 4.5-2.1 1.2-1.1 2.3-2.4 3.1-3.9z"/><path d="m108.3 13-.2-.1c-1.7-.8-3.2-1.9-4.4-3.3-1-1.6-1.8-3.3-2.2-5-.1-.3.1-.7.4-.8h.5c1.8.6 3.4 1.8 4.7 3.2 1 1.6 1.7 3.3 2 5.2.1.3-.2.7-.5.7zm-5.7-8c.4 1.4 1.1 2.8 1.9 4 1 1.1 2.1 2 3.4 2.7-.3-1.4-.9-2.8-1.7-4.1-.9-1.1-2.2-2-3.6-2.6z"/><path d="m110.5 20.6c-.1 0-.2 0-.3-.1-.2-.1-.3-.2-.3-.4 0-.1 0-.3 0-.4.4-1.1 1.6-3.8 3.6-5.3 1.8-1.1 3.7-1.8 5.7-2.1.2 0 .3 0 .5.1.1.1.2.2.3.4v.2l-.1.2c-.9 1.9-2.1 3.5-3.7 4.9-1.8 1.1-3.6 2-5.6 2.5zm8.1-7.2c-1.6.3-3.2 1-4.6 1.9-1.4 1-2.5 3-3 4.1 1.6-.5 3.1-1.2 4.5-2.1 1.3-1.1 2.4-2.4 3.1-3.9z"/><path d="m125.4 12.8-.2-.1c-1.7-.8-3.2-1.9-4.4-3.3-1-1.6-1.8-3.3-2.2-5 0-.1 0-.3.1-.5s.2-.3.4-.3h.4c1.8.6 3.4 1.8 4.7 3.2 1 1.6 1.7 3.3 2 5.2 0 .2 0 .3-.1.5-.1.1-.2.2-.4.3zm-5.7-8c.4 1.4 1.1 2.8 1.9 4 1 1.1 2.1 2 3.4 2.7-.3-1.4-.9-2.8-1.7-4.1-.9-1-2.2-2-3.6-2.6z"/><path d="m121.5 21.6c-.3 0-.5-.2-.6-.5 0-.2 0-.3 0-.4.4-1.1 1.6-3.8 3.6-5.3 1.8-1.1 3.7-1.8 5.7-2.1.2 0 .3 0 .5.1.1.1.2.2.3.4v.2l-.1.2c-.9 1.9-2.1 3.5-3.7 4.9-1.8 1.1-3.6 2-5.6 2.5.1-.1 0 0-.1 0zm8.2-7.2c-1.6.3-3.2 1-4.6 1.9-1.4 1-2.5 3-3 4.1 1.6-.5 3.1-1.2 4.5-2.1 1.3-1.1 2.4-2.4 3.1-3.9z"/><path d="m135.5 13.2-.2-.1c-1.7-.8-3.2-1.9-4.4-3.3-1-1.6-1.8-3.3-2.2-5 0-.2 0-.3.1-.5s.2-.3.4-.3h.2l.3.1c1.8.6 3.4 1.8 4.7 3.2 1 1.6 1.7 3.3 2 5.2 0 .2 0 .3-.1.5-.1.1-.2.2-.4.3zm-5.7-8c.4 1.4 1.1 2.8 1.9 4 1 1.1 2.1 2 3.4 2.7-.3-1.4-.9-2.8-1.7-4.1-.9-1.1-2.2-2-3.6-2.6z"/><path d="m137.1 20.4c-.1 0-.2 0-.3-.1-.2-.1-.3-.2-.3-.4 0-.1 0-.3 0-.4.4-1.1 1.6-3.8 3.6-5.3 1.8-1.1 3.7-1.8 5.7-2.1.2 0 .3 0 .5.1.1.1.2.2.3.4v.2l-.1.2c-.9 1.9-2.1 3.5-3.7 4.9-1.8 1.1-3.6 2-5.6 2.5 0 0 0 0-.1 0zm8.2-7.2c-1.6.3-3.2 1-4.6 1.9-1.4 1-2.5 3-3 4.1 1.6-.5 3.1-1.2 4.5-2.1 1.3-1.1 2.3-2.4 3.1-3.9z"/><path d="m152.1 12.6-.2-.1c-1.7-.8-3.2-1.9-4.4-3.3-1-1.6-1.8-3.3-2.2-5 0-.1 0-.3.1-.5s.2-.3.4-.3h.4c1.8.6 3.4 1.8 4.7 3.2 1 1.6 1.7 3.3 2 5.2 0 .2 0 .3-.1.5-.1.1-.2.2-.4.3zm-5.7-8c.4 1.4 1.1 2.8 1.9 4 .9 1.1 2.1 2 3.4 2.7-.3-1.4-.9-2.8-1.7-4.1-1-1.1-2.2-2-3.6-2.6z"/><path d="m148.2 21.3c-.3 0-.5-.2-.6-.5 0-.1 0-.3 0-.4.3-.9 1.6-3.8 3.6-5.3 1.8-1.1 3.7-1.8 5.7-2.1.2 0 .3 0 .5.1.1.1.2.2.3.4v.2l-.1.2c-.9 1.9-2.1 3.5-3.7 4.9-1.8 1.1-3.6 2-5.6 2.5 0 0 0 0-.1 0zm-.1-1s0 .1 0 0c0 .1 0 .1 0 0zm8.3-6.2c-1.6.3-3.2 1-4.6 1.9-1.4 1-2.5 3-3 4.1 1.6-.5 3.1-1.2 4.5-2.1 1.3-1 2.3-2.4 3.1-3.9z"/><path d="m162.2 13-.2-.1c-1.7-.8-3.2-1.9-4.4-3.3-1-1.6-1.8-3.3-2.2-5 0-.2 0-.3.1-.5s.2-.3.4-.3h.2l.3.1c1.8.6 3.4 1.8 4.7 3.2 1 1.6 1.7 3.3 2 5.2.1.4-.2.7-.5.7zm-5.7-8c.4 1.4 1.1 2.8 1.9 4 1 1.1 2.1 2 3.4 2.7-.3-1.4-.9-2.8-1.7-4.1-1-1.1-2.2-2-3.6-2.6z"/><path d="m164.3 20.6c-.1 0-.2 0-.3-.1-.2-.1-.3-.2-.3-.4v-.2l.1-.3c.3-.9 1.6-3.8 3.6-5.3 1.8-1.1 3.7-1.8 5.7-2.1.4-.1.7.2.7.5v.2l-.1.2c-.9 1.9-2.1 3.5-3.6 4.9-1.8 1.1-3.6 2-5.6 2.5-.1.1-.1.1-.2.1zm8.2-7.2c-1.6.3-3.2 1-4.6 1.9-1.4 1-2.5 3-3 4.1 1.6-.5 3.1-1.2 4.5-2.1 1.3-1.1 2.3-2.4 3.1-3.9z"/><path d="m179.3 12.8-.2-.1c-1.7-.8-3.2-1.9-4.4-3.3-1-1.6-1.8-3.3-2.2-5-.1-.3.1-.7.4-.8h.2l.3.1c1.8.6 3.4 1.8 4.7 3.2 1 1.6 1.7 3.3 2 5.2 0 .2 0 .3-.1.5-.1.1-.2.2-.4.3zm-5.7-8c.4 1.4 1.1 2.8 1.9 4 1 1.1 2.1 2 3.4 2.7-.3-1.4-.9-2.8-1.7-4.1-1-1.1-2.2-2-3.6-2.6z"/><path d="m175.4 21.5c-.3 0-.5-.2-.6-.5 0-.1 0-.3 0-.4.4-1.1 1.6-3.9 3.6-5.3 1.8-1.1 3.7-1.8 5.7-2.2.3-.1.7.2.7.5v.2l-.1.2c-.9 1.9-2.1 3.5-3.7 4.9-1.8 1.1-3.6 2-5.6 2.5.1.1.1.1 0 .1zm8.2-7.2c-1.6.3-3.2 1-4.6 1.9-1.4 1-2.5 3-3 4.1 1.6-.5 3.1-1.2 4.5-2.1 1.3-1 2.3-2.4 3.1-3.9z"/><path d="m189.4 13.2-.2-.1c-1.7-.8-3.2-1.9-4.4-3.3-1-1.6-1.8-3.3-2.2-5 0-.2 0-.3.1-.5s.2-.3.4-.3h.2l.3.1c1.8.6 3.4 1.8 4.7 3.2 1 1.6 1.7 3.3 2 5.2.1.4-.2.7-.5.7zm-5.7-8c.4 1.4 1.1 2.8 1.9 4 .9 1.1 2.1 2 3.4 2.7-.3-1.4-.9-2.8-1.7-4.1-1-1.1-2.2-2-3.6-2.6z"/><path d="m191.3 20.6c-.1 0-.2 0-.3-.1-.2-.1-.3-.2-.3-.4v-.2l.1-.3c.4-1.1 1.6-3.9 3.6-5.3 1.8-1.1 3.7-1.8 5.7-2.1.2 0 .3 0 .5.1.1.1.2.2.3.4v.2l-.1.2c-.9 1.9-2.1 3.5-3.7 4.9-1.8 1.1-3.6 2-5.6 2.5-.1.1-.1.1-.2.1zm8.2-7.2c-1.6.3-3.2 1-4.6 1.9-1.4 1-2.5 3-3 4.1 1.6-.5 3.1-1.2 4.5-2.1 1.3-1.1 2.3-2.4 3.1-3.9z"/><path d="m206.3 12.8-.2-.1c-1.7-.8-3.2-1.9-4.4-3.3-1-1.6-1.8-3.3-2.2-5-.1-.3.1-.7.4-.8h.2l.3.1c1.8.6 3.4 1.8 4.7 3.2 1 1.6 1.7 3.3 2 5.2.1.4-.2.7-.5.7zm-5.7-8c.4 1.4 1.1 2.8 1.9 4 .9 1.1 2.1 2 3.4 2.7-.3-1.4-.9-2.8-1.7-4.1-1-1.1-2.2-2-3.6-2.6z"/><path d="m202.4 21.5c-.3 0-.5-.2-.6-.5 0-.1 0-.3 0-.4.4-1.1 1.6-3.8 3.6-5.3 1.8-1.1 3.7-1.8 5.7-2.2.3-.1.7.2.7.5v.2l-.1.2c-.9 1.9-2.1 3.5-3.7 4.9-1.8 1.1-3.6 2-5.6 2.5.1.1.1.1 0 .1zm8.2-7.2c-1.6.3-3.2 1-4.6 1.9-1.4 1-2.5 3-3 4.1 1.6-.5 3.1-1.2 4.5-2.1 1.3-1 2.3-2.4 3.1-3.9z"/><path d="m216.4 13.2-.2-.1c-1.7-.8-3.2-1.9-4.4-3.3-1-1.6-1.8-3.3-2.2-5 0-.2 0-.3.1-.5s.1-.3.3-.3h.2l.3.1c1.8.6 3.4 1.8 4.7 3.2 1 1.6 1.7 3.3 2 5.2 0 .2 0 .3-.1.5-.1.1-.2.2-.4.3zm-5.7-8c.4 1.4 1.1 2.8 1.9 4 .9 1.1 2.1 2 3.4 2.7-.3-1.4-.9-2.8-1.7-4.1-1-1.1-2.2-2-3.6-2.6z"/></g></svg>